<svg xmlns="http://www.w3.org/2000/svg" xmlns:svg="http://www.w3.org/2000/svg" id="svg7" width="599" height="385" overflow="hidden" version="1.1" xml:space="preserve"><g id="g7" transform="translate(-791 -658)"><path id="path1" fill="none" fill-rule="evenodd" stroke="#000" stroke-miterlimit="8" stroke-width="6.875" d="m 803.27344,1016.8541 578.42216,-0.01"/><path id="path2" fill="#4472C4" d="M1.73976-1.49164 255.195 294.124 251.716 297.107-1.73976 1.49164ZM260.911 283.186 268.372 313.013 240.034 301.086Z" transform="matrix(-1 0 0 1 1363.87 701.5)"/><path id="path3" fill="#4472C4" d="M1.7375-1.49426 256.973 295.289 253.498 298.278-1.7375 1.49426ZM262.672 284.343 270.178 314.159 241.822 302.274Z" transform="matrix(-1 0 0 1 1328.68 700.5)"/><path id="path4" fill="#4472C4" d="M1.72732-1.50603 262.576 297.671 259.121 300.683-1.72732 1.50603ZM268.201 286.686 275.909 316.45 247.473 304.759Z" transform="matrix(-1 0 0 1 1296.41 698.5)"/><path id="path5" fill="#ED7D31" d="M1093.75 1015.67 891.157 706.917 894.989 704.403 1097.59 1013.15ZM884.091 717.035 880.5 686.5 907.083 701.948Z"/><path id="path6" fill="#ED7D31" d="M1060.39 1015.8 861.444 721.764 865.24 719.196 1064.19 1013.23ZM854.523 731.982 850.5 701.5 877.299 716.571Z"/><path id="path7" fill="#ED7D31" d="M1018.36 1016.47 830.509 740.729 834.297 738.149 1022.15 1013.89ZM823.62 750.969 819.5 720.5 846.347 735.485Z"/></g></svg>